<svg width="40" height="40" viewBox="0 0 40 40" fill="none" xmlns="http://www.w3.org/2000/svg">
<path d="M37.193 2.80703C34.3859 0 29.8688 0 20.8336 0H19.1664C10.1313 0 5.61406 0 2.80703 2.80703C0 5.61406 0 10.1313 0 19.1664V20.8336C0 29.8688 0 34.3859 2.80703 37.193C5.61406 40 10.1313 40 19.1664 40H20.8336C29.8688 40 34.3859 40 37.193 37.193C40 34.3859 40 29.8688 40 20.8336V19.1664C40 10.1313 40 5.61406 37.193 2.80703ZM32.5055 28.3336H29.5883C28.4758 28.3336 28.15 27.4461 26.1719 25.4688C24.4406 23.8 23.6992 23.5836 23.2664 23.5836C22.6789 23.5836 22.5031 23.75 22.5031 24.5836V27.1992C22.5031 27.9164 22.2742 28.3336 20.4195 28.3336C17.3289 28.3336 13.932 26.457 11.5219 22.9969C7.90547 17.9289 6.91641 14.0977 6.91641 13.325C6.91641 12.8922 7.08359 12.5 7.91641 12.5H10.8344C11.5797 12.5 11.8602 12.8266 12.1398 13.6336C13.5664 17.7891 15.9727 21.4211 16.9617 21.4211C17.332 21.4211 17.5023 21.25 17.5023 20.3086V16.0133C17.3937 14.0359 16.343 13.8734 16.343 13.1703C16.343 12.8445 16.6219 12.5 17.0852 12.5H21.6695C22.2883 12.5 22.5031 12.8305 22.5031 13.5719V19.3508C22.5031 19.968 22.7719 20.1844 22.957 20.1844C23.3281 20.1844 23.6375 19.968 24.3172 19.2883C26.4188 16.9398 27.9023 13.325 27.9023 13.325C28.0883 12.8922 28.4297 12.5 29.1719 12.5H32.0891C32.9711 12.5 33.157 12.9539 32.9711 13.5719C32.6 15.2719 29.0461 20.2773 29.0461 20.2773C28.7367 20.7719 28.6133 21.0188 29.0461 21.575C29.3555 22.0078 30.375 22.8727 31.0547 23.6766C32.3078 25.0859 33.2523 26.275 33.5156 27.0945C33.7562 27.9164 33.3391 28.3336 32.5055 28.3336Z" fill="black"/>
</svg>
